<mxfile host="app.diagrams.net" modified="2023-09-03T15:03:53.867Z" agent="Mozilla/5.0 (Macintosh; Intel Mac OS X 10_15_7) AppleWebKit/537.36 (KHTML, like Gecko) Chrome/116.0.0.0 Safari/537.36" etag="RJExSK1DoKg8kazaxxz9" version="21.7.2" type="device">
  <diagram name="第 1 页" id="JCzY1vLtvz1bLmc6nFVP">
    <mxGraphModel dx="636" dy="390" grid="1" gridSize="10" guides="1" tooltips="1" connect="1" arrows="1" fold="1" page="1" pageScale="1" pageWidth="827" pageHeight="1169" math="0" shadow="0">
      <root>
        <mxCell id="0" />
        <mxCell id="1" parent="0" />
        <mxCell id="3sZhHI41EYDQg_eTjzKY-5" value="" style="edgeStyle=orthogonalEdgeStyle;rounded=0;orthogonalLoop=1;jettySize=auto;html=1;" edge="1" parent="1" source="3sZhHI41EYDQg_eTjzKY-1" target="3sZhHI41EYDQg_eTjzKY-4">
          <mxGeometry relative="1" as="geometry" />
        </mxCell>
        <mxCell id="3sZhHI41EYDQg_eTjzKY-7" value="" style="edgeStyle=orthogonalEdgeStyle;rounded=0;orthogonalLoop=1;jettySize=auto;html=1;" edge="1" parent="1" source="3sZhHI41EYDQg_eTjzKY-1" target="3sZhHI41EYDQg_eTjzKY-6">
          <mxGeometry relative="1" as="geometry" />
        </mxCell>
        <mxCell id="3sZhHI41EYDQg_eTjzKY-1" value="Non-updated Article&lt;br&gt;------------------&lt;br&gt;Triggered News" style="rounded=1;whiteSpace=wrap;html=1;" vertex="1" parent="1">
          <mxGeometry x="290" y="180" width="120" height="60" as="geometry" />
        </mxCell>
        <mxCell id="3sZhHI41EYDQg_eTjzKY-4" value="Paragraph.........1&lt;br&gt;Paragraph.........2&lt;br&gt;&lt;b&gt;.&lt;br&gt;.&lt;br&gt;.&lt;br&gt;&lt;/b&gt;Paragraph.........N" style="whiteSpace=wrap;html=1;rounded=1;" vertex="1" parent="1">
          <mxGeometry x="210" y="280" width="120" height="100" as="geometry" />
        </mxCell>
        <mxCell id="3sZhHI41EYDQg_eTjzKY-10" value="" style="edgeStyle=orthogonalEdgeStyle;rounded=0;orthogonalLoop=1;jettySize=auto;html=1;" edge="1" parent="1" source="3sZhHI41EYDQg_eTjzKY-6" target="3sZhHI41EYDQg_eTjzKY-9">
          <mxGeometry relative="1" as="geometry" />
        </mxCell>
        <mxCell id="3sZhHI41EYDQg_eTjzKY-6" value="Triggered News&lt;br&gt;Triggered News&lt;br&gt;.&lt;br&gt;.&lt;br&gt;.&lt;br&gt;Triggered News" style="whiteSpace=wrap;html=1;rounded=1;" vertex="1" parent="1">
          <mxGeometry x="370" y="280" width="120" height="100" as="geometry" />
        </mxCell>
        <mxCell id="3sZhHI41EYDQg_eTjzKY-8" value="&lt;font style=&quot;font-size: 20px;&quot;&gt;+&lt;/font&gt;" style="text;html=1;align=center;verticalAlign=middle;resizable=0;points=[];autosize=1;strokeColor=none;fillColor=none;" vertex="1" parent="1">
          <mxGeometry x="330" y="310" width="40" height="40" as="geometry" />
        </mxCell>
        <mxCell id="3sZhHI41EYDQg_eTjzKY-9" value="Edited or Not&lt;br&gt;Edited or Not&lt;br&gt;&lt;b&gt;.&lt;br&gt;.&lt;br&gt;.&lt;/b&gt;&lt;br&gt;Edited or Not" style="whiteSpace=wrap;html=1;rounded=1;" vertex="1" parent="1">
          <mxGeometry x="540" y="280" width="120" height="100" as="geometry" />
        </mxCell>
      </root>
    </mxGraphModel>
  </diagram>
</mxfile>
